name Walk2.mot
datacolumns 19
datarows 17
range 3.05400000 3.07000000
endheader

                time	   L_ground_force_vx	   L_ground_force_vy	   L_ground_force_vz	   L_ground_force_px	   L_ground_force_py	   L_ground_force_pz	   R_ground_force_vx	   R_ground_force_vy	   R_ground_force_vz	   R_ground_force_px	   R_ground_force_py	   R_ground_force_pz	   L_ground_torque_x	   L_ground_torque_y	   L_ground_torque_z	   R_ground_torque_x	   R_ground_torque_y	   R_ground_torque_z	
          3.05400000	         31.65399666	        961.11510528	         68.40799614	         -0.28967416	          0.00000000	         -0.06614577	         -0.01114170	          0.29125576	          0.02412844	          0.00012182	          0.00000000	          0.00013503	          0.00000000	          0.33033967	          0.00000000	          0.00000000	          0.00643323	          0.00000000	
          3.05500000	         32.02205609	        962.09173090	         68.59048381	         -0.28931297	          0.00000000	         -0.06615581	         -0.01235034	          0.30729698	          0.02508335	          0.00012655	          0.00000000	          0.00014006	          0.00000000	          0.33966468	          0.00000000	          0.00000000	          0.00688277	          0.00000000	
          3.05600000	         32.38931406	        963.05639198	         68.77292848	         -0.28895068	          0.00000000	         -0.06616573	         -0.01362028	          0.32355972	          0.02602340	          0.00013120	          0.00000000	          0.00014498	          0.00000000	          0.34918792	          0.00000000	          0.00000000	          0.00734566	          0.00000000	
          3.05700000	         32.75597687	        964.00932199	         68.95518288	         -0.28858739	          0.00000000	         -0.06617553	         -0.01495199	          0.33999741	          0.02694333	          0.00013574	          0.00000000	          0.00014975	          0.00000000	          0.35890103	          0.00000000	          0.00000000	          0.00782123	          0.00000000	
          3.05800000	         33.12225585	        964.95076994	         69.13710346	         -0.28822320	          0.00000000	         -0.06618519	         -0.01634569	          0.35655841	          0.02783748	          0.00014015	          0.00000000	          0.00015435	          0.00000000	          0.36879639	          0.00000000	          0.00000000	          0.00830868	          0.00000000	
          3.05900000	         33.48836624	        965.88099787	         69.31855166	         -0.28785819	          0.00000000	         -0.06619470	         -0.01780139	          0.37318579	          0.02869974	          0.00014438	          0.00000000	          0.00015874	          0.00000000	          0.37886708	          0.00000000	          0.00000000	          0.00880713	          0.00000000	
          3.06000000	         33.85452658	        966.80027781	         69.49939546	         -0.28749248	          0.00000000	         -0.06620404	         -0.01931885	          0.38981705	          0.02952361	          0.00014841	          0.00000000	          0.00016289	          0.00000000	          0.38910649	          0.00000000	          0.00000000	          0.00931551	          0.00000000	
          3.06100000	         34.22095860	        967.70888830	         69.67951096	         -0.28712617	          0.00000000	         -0.06621320	         -0.02089754	          0.40638385	          0.03030210	          0.00015220	          0.00000000	          0.00016674	          0.00000000	          0.39950776	          0.00000000	          0.00000000	          0.00983267	          0.00000000	
          3.06200000	         34.58788739	        968.60711062	         69.85878369	         -0.28675935	          0.00000000	         -0.06622215	         -0.02253662	          0.42281180	          0.03102779	          0.00015572	          0.00000000	          0.00017027	          0.00000000	          0.41006304	          0.00000000	          0.00000000	          0.01035727	          0.00000000	
          3.06300000	         34.95554147	        969.49522507	         70.03710917	         -0.28639215	          0.00000000	         -0.06623087	         -0.02423493	          0.43902014	          0.03169277	          0.00015892	          0.00000000	          0.00017342	          0.00000000	          0.42076306	          0.00000000	          0.00000000	          0.01088785	          0.00000000	
          3.06400000	         35.32415266	        970.37350765	         70.21439265	         -0.28602466	          0.00000000	         -0.06623936	         -0.02599098	          0.45492153	          0.03228866	          0.00016176	          0.00000000	          0.00017615	          0.00000000	          0.43159685	          0.00000000	          0.00000000	          0.01142277	          0.00000000	
          3.06500000	         35.69395559	        971.24222730	         70.39054810	         -0.28565698	          0.00000000	         -0.06624757	         -0.02780286	          0.47042177	          0.03280657	          0.00016419	          0.00000000	          0.00017840	          0.00000000	          0.44255185	          0.00000000	          0.00000000	          0.01196022	          0.00000000	
          3.06600000	         36.06518682	        972.10164335	         70.56549695	         -0.28528924	          0.00000000	         -0.06625551	         -0.02966829	          0.48541958	          0.03323712	          0.00016618	          0.00000000	          0.00018013	          0.00000000	          0.45361428	          0.00000000	          0.00000000	          0.01249822	          0.00000000	
          3.06700000	         36.43808361	        972.95200302	         70.73916674	         -0.28492152	          0.00000000	         -0.06626314	         -0.03158454	          0.49980631	          0.03357041	          0.00016766	          0.00000000	          0.00018127	          0.00000000	          0.46476972	          0.00000000	          0.00000000	          0.01303459	          0.00000000	
          3.06800000	         36.81288246	        973.79353843	         70.91149011	         -0.28455394	          0.00000000	         -0.06627046	         -0.03354841	          0.51346578	          0.03379603	          0.00016859	          0.00000000	          0.00018177	          0.00000000	          0.47600363	          0.00000000	          0.00000000	          0.01356698	          0.00000000	
          3.06900000	         37.18981748	        974.62646333	         71.08240407	         -0.28418660	          0.00000000	         -0.06627744	         -0.03555623	          0.52627399	          0.03390305	          0.00016891	          0.00000000	          0.00018156	          0.00000000	          0.48730188	          0.00000000	          0.00000000	          0.01409281	          0.00000000	
          3.07000000	         37.56911881	        975.45096977	         71.25184955	         -0.28381962	          0.00000000	         -0.06628407	         -0.03760377	          0.53809893	          0.03387999	          0.00016856	          0.00000000	          0.00018059	          0.00000000	          0.49865091	          0.00000000	          0.00000000	          0.01460930	          0.00000000	
